<svg width="23" height="21" viewBox="0 0 23 21" fill="none" xmlns="http://www.w3.org/2000/svg">
<path d="M22.3262 0H6.10938C5.73724 0 5.43555 0.301695 5.43555 0.673828V9.47775C4.53383 9.63228 3.70233 10.0922 3.0931 10.7812H2.74023V10.1074C2.74023 9.73529 2.43854 9.43359 2.06641 9.43359H0.673828C0.301695 9.43359 0 9.73529 0 10.1074C0 10.4796 0.301695 10.7812 0.673828 10.7812H1.39258V18.8672H0.673828C0.301695 18.8672 0 19.1689 0 19.541C0 19.9131 0.301695 20.2148 0.673828 20.2148H2.06641C2.43854 20.2148 2.74023 19.9131 2.74023 19.541V18.8672H3.30917C7.60653 20.2273 7.44414 20.2148 7.63672 20.2148H16.8906C18.2846 20.2148 19.2612 18.8304 18.7962 17.5195H22.3262C22.6983 17.5195 23 17.2178 23 16.8457V0.673828C23 0.301695 22.6983 0 22.3262 0ZM12.8477 1.34766H15.543V4.7168H12.8477V1.34766ZM17.5645 18.1934C17.5645 18.5649 17.2622 18.8672 16.8906 18.8672H7.74161C3.4443 17.5071 3.60669 17.5195 3.41406 17.5195H2.74023V12.1289H3.41406C3.62807 12.1289 3.82937 12.0272 3.95636 11.855C5.02357 10.408 7.19433 10.4068 8.26235 11.855C8.38939 12.0272 8.59068 12.1289 8.80469 12.1289H12.1738C12.5454 12.1289 12.8477 12.4312 12.8477 12.8027C12.8477 13.1743 12.5454 13.4766 12.1738 13.4766H8.13086C7.75873 13.4766 7.45703 13.7783 7.45703 14.1504C7.45703 16.0081 8.96843 17.5195 10.8262 17.5195H16.8906C17.2622 17.5195 17.5645 17.8218 17.5645 18.1934ZM21.6523 16.1719C21.2438 16.1719 11.3812 16.1719 10.8262 16.1719C9.94768 16.1719 9.19825 15.6086 8.92014 14.8242H12.1738C13.2885 14.8242 14.1953 13.9174 14.1953 12.8027C14.1953 11.6881 13.2885 10.7812 12.1738 10.7812H9.12565C8.51647 10.0922 7.68492 9.63228 6.7832 9.47775V1.34766H11.5V5.39062C11.5 5.76276 11.8017 6.06445 12.1738 6.06445H16.2168C16.5889 6.06445 16.8906 5.76276 16.8906 5.39062V1.34766H21.6523V16.1719Z" fill="#0A4DB0"/>
</svg>
