<svg width="26" height="21" viewBox="0 0 26 21" fill="none" xmlns="http://www.w3.org/2000/svg">
<path d="M7.85073 13.1H8.23336C8.47267 13.1 8.66669 12.906 8.66669 12.6666V10.9333C8.66669 10.2153 8.08467 9.63332 7.3667 9.63332H2.60005V0.533368C2.60005 0.294061 2.40603 0.100037 2.16672 0.100037H0.433399C0.194092 0.100037 6.75264e-05 0.294061 6.75264e-05 0.533368V12.6666C6.75264e-05 12.906 0.194092 13.1 0.433399 13.1H0.81603L0.00266751 20.4189C-0.0236574 20.6568 0.147833 20.871 0.385678 20.8973C0.401495 20.899 0.41742 20.8999 0.433399 20.8999H1.73339C1.95428 20.8999 2.1398 20.7338 2.16412 20.5143L2.99005 13.1H5.68104L6.50437 20.5143C6.52858 20.7332 6.71313 20.8991 6.93337 20.8999H8.23336C8.47267 20.8999 8.66669 20.706 8.66675 20.4667C8.66675 20.4507 8.66588 20.4348 8.66409 20.4189L7.85073 13.1ZM1.34556 20.0333H0.91743L1.69006 13.1H2.11819L1.34556 20.0333ZM7.32337 20.0333L6.55074 13.1H6.97887L7.74933 20.0333H7.32337ZM7.80003 12.2333H0.86673V0.966699H1.73339V10.0667C1.73339 10.306 1.92742 10.5 2.16672 10.5H7.3667C7.60601 10.5 7.80003 10.694 7.80003 10.9333V12.2333Z" fill="#0A4DB0"/>
<path d="M25.9973 20.4189L25.184 13.1H25.5666C25.8059 13.1 25.9999 12.906 25.9999 12.6666V0.533368C25.9999 0.294061 25.8059 0.100037 25.5666 0.100037H23.8333C23.594 0.100037 23.4 0.294061 23.4 0.533368V9.63332H18.6333C17.9153 9.63332 17.3333 10.2153 17.3333 10.9333V12.6666C17.3333 12.906 17.5273 13.1 17.7667 13.1H18.1493L17.3359 20.4189C17.3096 20.6568 17.4811 20.871 17.7189 20.8973C17.7347 20.899 17.7507 20.8999 17.7667 20.8999H19.0666C19.2875 20.8999 19.4731 20.7338 19.4974 20.5143L20.3233 13.1H23.0143L23.8376 20.5143C23.8618 20.7332 24.0464 20.8991 24.2666 20.8999H25.5666C25.8059 20.8999 25.9999 20.706 26 20.4667C26 20.4507 25.9991 20.4348 25.9973 20.4189ZM18.6766 20.0333H18.2485L19.0233 13.1H19.4514L18.6766 20.0333ZM24.6566 20.0333L23.884 13.1H24.3121L25.0804 20.0333H24.6566ZM25.1333 12.2333H18.2V10.9333C18.2 10.694 18.394 10.5 18.6333 10.5H23.8333C24.0726 10.5 24.2666 10.306 24.2666 10.0667V0.966699H25.1333V12.2333Z" fill="#0A4DB0"/>
<path d="M19.5 7.46666V5.73333C19.5 5.49403 19.306 5.3 19.0667 5.3H6.93339C6.69409 5.3 6.50006 5.49403 6.50006 5.73333V7.46666C6.50006 7.70597 6.69409 7.89999 6.93339 7.89999H11.2667V20.4666C11.2667 20.7059 11.4607 20.8999 11.7 20.8999H14.3C14.5393 20.8999 14.7334 20.7059 14.7334 20.4666V7.89999H19.0667C19.306 7.89999 19.5 7.70597 19.5 7.46666ZM13.8667 20.0333H12.1334V7.89999H13.8667V20.0333ZM18.6333 7.03333H7.36672V6.16667H18.6333V7.03333Z" fill="#0A4DB0"/>
</svg>
