<svg width="41" height="31" viewBox="0 0 41 31" fill="none" xmlns="http://www.w3.org/2000/svg">
<path d="M40.5693 13.889L17.4044 0.640168C15.6176 -0.383383 13.1719 0.168431 11.9941 1.85406L7.50646 8.26939C7.06604 8.89976 6.83333 9.63864 6.83333 10.4075C6.83333 11.7359 7.54738 12.9731 8.69594 13.636L13.5815 16.4574L12.6989 17.6351C12.2209 18.2721 11.9582 19.0619 11.9582 19.8584C11.9582 20.6776 12.2582 21.4481 12.7414 22.085L11.4411 24.0415H5.12496V21.4706C5.12496 20.9981 4.74291 20.6249 4.27077 20.6249H0.854187C0.38205 20.6249 0 20.9981 0 21.4706V30.02C0 30.4925 0.38205 30.8749 0.854187 30.8749H4.27085C4.74299 30.8749 5.12504 30.4925 5.12504 30.02V29.1666H11.4412C13.1587 29.1666 14.7527 28.3134 15.7053 26.8833L17.1054 24.7813C17.375 24.8398 17.6469 24.8929 17.9249 24.8929C19.2845 24.8929 20.5641 24.1682 21.2631 23.0011L22.2016 21.4355L29.4711 25.6336C29.602 25.7095 29.7497 25.7479 29.8981 25.7479C29.9807 25.7479 30.0633 25.7362 30.1442 25.712C30.3695 25.6436 30.5571 25.4857 30.6622 25.2754L31.2946 24.0078C31.3984 24.0157 31.4982 24.0381 31.6039 24.0381C34.9005 24.0381 37.5831 21.3531 37.5831 18.0536C37.5831 17.6912 37.5296 17.3178 37.4501 16.9361L40.5276 15.3961C40.8096 15.255 40.9905 14.9704 40.9998 14.6548C41.008 14.3398 40.8429 14.0451 40.5693 13.889ZM3.41667 29.1666H1.70829V22.3333H3.41659V29.1666H3.41667ZM14.2838 25.9393C13.649 26.8919 12.5863 27.4608 11.4411 27.4608H5.12496V25.7525H11.4411C12.015 25.7525 12.5463 25.468 12.8624 24.9917L14.0453 23.2169L15.5121 24.0968L14.2838 25.9393ZM19.7984 22.1289C19.2011 23.1223 17.7956 23.476 16.8013 22.8779L14.635 21.5783C14.0378 21.2205 13.6666 20.5649 13.6666 19.8684C13.6666 19.4396 13.8084 19.0151 14.0653 18.6714L15.0714 17.33L20.7217 20.59L19.7984 22.1289ZM29.5394 23.7054L9.54924 12.1717C8.92784 11.8131 8.54163 11.1441 8.54163 10.4259C8.54163 10.0096 8.66759 9.61005 8.90614 9.26892L11.0507 6.20595L32.1885 18.4005L29.5394 23.7054ZM32.1607 22.2794L33.9487 18.6988L35.8461 17.7502C35.8557 17.8551 35.8747 17.9636 35.8747 18.0649C35.8747 20.229 34.2505 22.0032 32.1607 22.2794ZM33.3412 17.0929L12.0344 4.80099L13.3938 2.85944C13.8435 2.21713 14.5791 1.8334 15.3633 1.8334C15.7812 1.8334 16.1941 1.94271 16.5569 2.15035L38.3363 14.5958L33.3412 17.0929Z" fill="#1B5AFF"/>
</svg>
