<svg width="20" height="25" viewBox="0 0 20 25" fill="none" xmlns="http://www.w3.org/2000/svg">
<path d="M19.043 19.8242C19.043 17.8049 17.4001 16.1621 15.3809 16.1621H3.66211C1.64282 16.1621 0 17.8049 0 19.8242V25H19.043V19.8242ZM1.46484 19.8242C1.46484 18.6126 2.45054 17.627 3.66211 17.627H8.56728L6.83779 18.7799C6.22515 19.1884 5.85938 19.8719 5.85938 20.6082V23.5352H1.46484V19.8242ZM17.5781 23.5352H7.32422V20.6082C7.32422 20.3627 7.44614 20.1349 7.65034 19.9987L11.2081 17.627H15.3809C16.5924 17.627 17.5781 18.6126 17.5781 19.8242V23.5352Z" fill="#1B5AFF"/>
<path d="M8.78906 20.5566H10.2539V22.0215H8.78906V20.5566Z" fill="#1B5AFF"/>
<path d="M14.6484 11.0352C14.6484 10.5448 14.6484 6.98047 14.6484 6.39585C15.5729 5.70669 16.1133 4.7103 16.1133 3.66211C16.1133 1.50127 13.992 0 11.7188 0C10.936 0 10.1822 0.169385 9.52109 0.486816C8.8562 0.167334 8.10508 0 7.32422 0C5.03989 0 2.92969 1.51016 2.92969 3.66211C2.92969 4.7103 3.47007 5.70669 4.39453 6.39585V11.0352C4.39453 13.8622 6.69448 16.1621 9.52148 16.1621C12.3485 16.1621 14.6484 13.8622 14.6484 11.0352ZM7.32422 1.46484C7.59868 1.46484 7.8668 1.49302 8.12378 1.54814C7.60386 2.15996 7.32422 2.89033 7.32422 3.66211H8.78906C8.78906 2.45054 10.1033 1.46484 11.7188 1.46484C13.3342 1.46484 14.6484 2.45054 14.6484 3.66211C14.6484 4.92612 13.2932 5.49727 13.1836 5.5917V7.32422H5.85938V5.5917C5.7501 5.49746 4.39453 4.94287 4.39453 3.66211C4.39453 2.45054 5.70879 1.46484 7.32422 1.46484ZM9.52148 14.6973C7.5022 14.6973 5.85938 13.0544 5.85938 11.0352V8.78857H13.1836V11.0352C13.1836 13.0544 11.5408 14.6973 9.52148 14.6973Z" fill="#1B5AFF"/>
</svg>
