<svg width="26" height="23" viewBox="0 0 26 23" fill="none" xmlns="http://www.w3.org/2000/svg">
<path d="M25.9306 17.074C25.369 14.813 24.3455 13.5686 23.2267 12.9157C23.5314 12.5249 23.7138 12.0331 23.7138 11.499C23.7138 11.2302 23.6673 10.9723 23.5827 10.7324H23.7138C24.9737 10.7324 25.9988 9.70071 25.9988 8.43259V2.29981C25.9988 1.03169 24.9737 0 23.7138 0H17.6203C16.3603 0 15.3352 1.03169 15.3352 2.29981V8.43259C15.3352 8.73188 15.3929 9.01768 15.4968 9.28023C14.5271 9.5463 13.8119 10.4399 13.8119 11.499V13.0322C13.8119 13.244 13.8972 13.4357 14.0351 13.5744C15.3462 14.8939 15.4135 16.9973 14.2389 18.3985H10.6636V17.6319C10.6636 17.6319 10.6636 17.6318 10.6636 17.6318V9.96591C10.6636 9.1037 10.379 8.30717 9.89982 7.6661H11.4253C11.846 7.6661 12.187 7.32286 12.187 6.89952C12.187 6.47613 11.8459 6.13294 11.4253 6.13294H9.14023V5.36635C9.14023 4.09823 8.11516 3.06654 6.85517 3.06654H5.33178C4.91111 3.06654 4.57012 3.40979 4.57012 3.83313V6.89952C4.57012 7.32291 4.91116 7.6661 5.33178 7.6661H5.82848L4.4198 12.3446C1.91278 12.7812 0 14.9858 0 17.6319V19.1651C0 21.3183 1.74109 23 3.80256 23C5.6451 23 7.18774 21.8323 7.54519 19.9317C7.79813 19.9317 14.8438 19.9317 15.4119 19.9317C15.7658 21.6791 17.3045 22.9981 19.1437 22.9981C20.983 22.9981 22.5217 21.6791 22.8756 19.9317H23.7138C25.2002 19.9316 26.2914 18.5266 25.9306 17.074ZM6.09345 4.59961H6.85512C7.27513 4.59961 7.61679 4.94352 7.61679 5.3662V6.13278C7.06551 6.13278 6.64468 6.13278 6.0934 6.13278V4.59961H6.09345ZM4.97037 21.1817C3.20791 22.043 1.52334 20.7993 1.52334 19.165C1.52334 17.897 2.54836 16.8653 3.80819 16.8652C3.80824 16.8652 3.80824 16.8652 3.80829 16.8652C3.80834 16.8652 3.80834 16.8652 3.8084 16.8652C5.06838 16.8652 6.09345 17.8969 6.09345 19.165C6.09345 20.0567 5.65262 20.8483 4.97037 21.1817ZM9.14023 18.3984H7.54021C7.18637 16.651 5.64764 15.3321 3.8084 15.3321C3.80834 15.3321 3.80829 15.3321 3.80824 15.3321C3.80819 15.3321 3.80814 15.3321 3.80809 15.3321C3.1491 15.3321 2.52876 15.5016 1.98763 15.7994C2.63443 14.6085 3.89086 13.7989 5.33178 13.7989C7.43174 13.7989 9.14023 15.5183 9.14023 17.6319V18.3984ZM9.14023 13.8804C8.32367 13.0409 7.23634 12.4691 6.0218 12.3105L7.40036 7.73214C8.39801 7.97884 9.14023 8.88669 9.14023 9.96581V13.8804ZM16.8586 2.29986C16.8586 1.87713 17.2003 1.53327 17.6203 1.53327H23.7137C24.1337 1.53327 24.4754 1.87718 24.4754 2.29986V3.06644H16.8586V2.29986ZM16.8586 4.59961H24.4754V8.43264C24.4754 8.85536 24.1337 9.19922 23.7138 9.19922C23.461 9.19922 17.9112 9.19922 17.6203 9.19922C17.2003 9.19922 16.8586 8.85531 16.8586 8.43264V4.59961H16.8586ZM15.3352 12.2656V11.499C15.3352 11.0763 15.677 10.7324 16.0969 10.7324C16.6309 10.7324 20.8962 10.7324 21.4287 10.7324C21.8487 10.7324 22.1904 11.0764 22.1904 11.499C22.1904 11.9218 21.8487 12.2656 21.4287 12.2656C20.8499 12.2656 16.7538 12.2656 16.0969 12.2656H15.3352ZM19.1436 21.4648C18.1507 21.4648 17.304 20.8137 16.9896 19.9214H21.2977C20.9833 20.8137 20.1366 21.4648 19.1436 21.4648ZM23.7138 18.3984H16.0533C16.775 16.9569 16.7749 15.2404 16.0532 13.7988H16.0969H20.6787C22.6086 13.7988 23.8431 14.9918 24.4527 17.4459C24.5728 17.9296 24.2098 18.3984 23.7138 18.3984Z" fill="#0A4DB0"/>
</svg>
