<svg width="23" height="23" viewBox="0 0 23 23" fill="none" xmlns="http://www.w3.org/2000/svg">
<path d="M22.3262 9.43359H21.5836C21.4463 8.76596 21.1079 8.15269 20.6121 7.67787C20.8672 6.80176 20.7596 5.85287 20.2982 5.05371C19.8368 4.25455 19.0688 3.68692 18.1826 3.46977C17.9654 2.58355 17.3977 1.81556 16.5986 1.35412C15.7995 0.892777 14.8506 0.785145 13.9745 1.04021C13.3434 0.381297 12.4678 0 11.5449 0C10.6076 0 9.67177 0.397289 9.0315 1.04196C8.15377 0.784695 7.20223 0.891744 6.40137 1.35412C5.60221 1.81552 5.03457 2.58355 4.81738 3.46972C3.93116 3.68687 3.16317 4.25451 2.70178 5.05367C2.24039 5.85278 2.1328 6.80171 2.38787 7.67782C1.89211 8.15269 1.55367 8.76596 1.41639 9.43359H0.673828C0.301695 9.43359 0 9.73529 0 10.1074C0 14.0632 2.05073 17.7316 5.39062 19.8222V20.9785C5.39062 22.0932 6.29746 23 7.41211 23H15.5879C16.7025 23 17.6094 22.0932 17.6094 20.9785V19.8222C20.9493 17.7316 23 14.0632 23 10.1074C23 9.73529 22.6983 9.43359 22.3262 9.43359ZM3.57111 8.44617C3.84217 8.25853 3.93763 7.9023 3.79675 7.6042C3.51168 7.00107 3.53863 6.29953 3.8689 5.72754C4.19916 5.1555 4.79325 4.78135 5.45801 4.72668C5.78657 4.69968 6.04734 4.43891 6.07438 4.11035C6.12905 3.44555 6.50316 2.85151 7.0752 2.5212C7.64719 2.19093 8.34878 2.16402 8.95185 2.44905C9.24991 2.58997 9.60614 2.49447 9.79378 2.22341C10.1565 1.69962 10.8602 1.34766 11.5449 1.34766C12.2055 1.34766 12.8265 1.67505 13.2062 2.22345C13.3939 2.49451 13.7501 2.59002 14.0481 2.4491C14.6512 2.16402 15.3527 2.19097 15.9248 2.52124C16.4968 2.85151 16.871 3.44555 16.9256 4.11035C16.9526 4.43891 17.2133 4.69968 17.5419 4.72672C18.2067 4.78139 18.8008 5.15555 19.1311 5.72758C19.4614 6.29957 19.4883 7.00112 19.2032 7.60424C19.0623 7.9023 19.1578 8.25857 19.4288 8.44621C19.7842 8.6922 20.0459 9.03985 20.1867 9.43364H2.81319C2.95402 9.03981 3.21573 8.69216 3.57111 8.44617ZM16.2617 20.9785C16.2617 21.3501 15.9594 21.6523 15.5879 21.6523H7.41211C7.04056 21.6523 6.73828 21.3501 6.73828 20.9785V20.2148H16.2617V20.9785ZM16.5806 18.8672H6.41943C3.48279 17.1725 1.59459 14.1223 1.37021 10.7723H21.6298C21.4054 14.1223 19.5172 17.1725 16.5806 18.8672Z" fill="#0A4DB0"/>
</svg>
