<svg width="20" height="26" viewBox="0 0 20 26" fill="none" xmlns="http://www.w3.org/2000/svg">
<path d="M19.8047 20.6172C19.8047 18.5171 18.0962 16.8086 15.9961 16.8086H3.80859C1.70854 16.8086 0 18.5171 0 20.6172V26H19.8047V20.6172ZM1.52344 20.6172C1.52344 19.3572 2.54856 18.332 3.80859 18.332H8.90998L7.1113 19.5311C6.47415 19.956 6.09375 20.6667 6.09375 21.4325V24.4766H1.52344V20.6172ZM18.2812 24.4766H7.61719V21.4325C7.61719 21.1772 7.74399 20.9403 7.95636 20.7987L11.6564 18.332H15.9961C17.2561 18.332 18.2812 19.3572 18.2812 20.6172V24.4766Z" fill="#0A4DB0"/>
<path d="M9.14062 21.3789H10.6641V22.9023H9.14062V21.3789Z" fill="#0A4DB0"/>
<path d="M15.2344 11.4766C15.2344 10.9666 15.2344 7.25969 15.2344 6.65168C16.1958 5.93496 16.7578 4.89872 16.7578 3.80859C16.7578 1.56132 14.5517 0 12.1875 0C11.3734 0 10.5895 0.17616 9.90194 0.506289C9.21045 0.174027 8.42928 0 7.61719 0C5.24149 0 3.04688 1.57056 3.04688 3.80859C3.04688 4.89872 3.60887 5.93496 4.57031 6.65168V11.4766C4.57031 14.4166 6.96226 16.8086 9.90234 16.8086C12.8424 16.8086 15.2344 14.4166 15.2344 11.4766ZM7.61719 1.52344C7.90263 1.52344 8.18147 1.55274 8.44873 1.61007C7.90801 2.24636 7.61719 3.00595 7.61719 3.80859H9.14062C9.14062 2.54856 10.5075 1.52344 12.1875 1.52344C13.8675 1.52344 15.2344 2.54856 15.2344 3.80859C15.2344 5.12317 13.8249 5.71716 13.7109 5.81537V7.61719H6.09375V5.81537C5.9801 5.71736 4.57031 5.14059 4.57031 3.80859C4.57031 2.54856 5.93714 1.52344 7.61719 1.52344ZM9.90234 15.2852C7.80229 15.2852 6.09375 13.5766 6.09375 11.4766V9.14012H13.7109V11.4766C13.7109 13.5766 12.0024 15.2852 9.90234 15.2852Z" fill="#0A4DB0"/>
</svg>
