<svg width="44" height="19" viewBox="0 0 44 19" fill="none" xmlns="http://www.w3.org/2000/svg">
<rect y="0.333344" width="44" height="18.6667" rx="2.66667" fill="#FD1B54"/>
<path d="M14.0996 12.1566H17.21V13.3333H12.6348V6.22397H14.0996V12.1566ZM19.4512 13.3333H18.0352V8.05014H19.4512V13.3333ZM17.9521 6.68295C17.9521 6.47136 18.0221 6.29721 18.1621 6.16049C18.3053 6.02377 18.499 5.95541 18.7432 5.95541C18.984 5.95541 19.1761 6.02377 19.3193 6.16049C19.4626 6.29721 19.5342 6.47136 19.5342 6.68295C19.5342 6.8978 19.4609 7.07358 19.3145 7.2103C19.1712 7.34702 18.9808 7.41537 18.7432 7.41537C18.5055 7.41537 18.3135 7.34702 18.167 7.2103C18.0238 7.07358 17.9521 6.8978 17.9521 6.68295ZM22.5957 11.6097L23.5771 8.05014H25.0518L23.2695 13.3333H21.9219L20.1396 8.05014H21.6143L22.5957 11.6097ZM28.04 13.431C27.2653 13.431 26.6338 13.1934 26.1455 12.7181C25.6605 12.2428 25.418 11.6097 25.418 10.8187V10.682C25.418 10.1514 25.5205 9.67774 25.7256 9.26108C25.9307 8.84116 26.2204 8.51889 26.5947 8.29428C26.9723 8.06642 27.402 7.95248 27.8838 7.95248C28.6064 7.95248 29.1745 8.18035 29.5879 8.63608C30.0046 9.09181 30.2129 9.73797 30.2129 10.5746V11.1507H26.8486C26.8942 11.4958 27.0309 11.7725 27.2588 11.9808C27.4899 12.1891 27.7812 12.2933 28.1328 12.2933C28.6764 12.2933 29.1012 12.0964 29.4072 11.7025L30.1006 12.4789C29.889 12.7783 29.6025 13.0127 29.2412 13.182C28.8799 13.348 28.4795 13.431 28.04 13.431ZM27.8789 9.09506C27.599 9.09506 27.3711 9.18946 27.1953 9.37827C27.0228 9.56707 26.9121 9.83725 26.8633 10.1888H28.8262V10.0765C28.8197 9.76401 28.735 9.52312 28.5723 9.35385C28.4095 9.18133 28.1784 9.09506 27.8789 9.09506Z" fill="white"/>
</svg>
