<svg width="87" height="35" viewBox="0 0 87 35" fill="none" xmlns="http://www.w3.org/2000/svg">
<path d="M12.6725 21.53C12.6725 20.7186 12.3862 20.0981 11.8134 19.6685C11.2406 19.2294 10.2096 18.7712 8.72043 18.2939C7.23123 17.807 6.05227 17.3297 5.18357 16.862C2.81612 15.5828 1.6324 13.8597 1.6324 11.6927C1.6324 10.5663 1.94742 9.56391 2.57747 8.68567C3.21706 7.79787 4.12872 7.10578 5.31245 6.60937C6.50572 6.11297 7.84218 5.86477 9.32184 5.86477C10.811 5.86477 12.138 6.13684 13.3026 6.68097C14.4672 7.21556 15.3693 7.97448 16.0089 8.95773C16.6581 9.94099 16.9826 11.0579 16.9826 12.3084H12.6869C12.6869 11.3538 12.3862 10.614 11.7848 10.089C11.1833 9.55437 10.3385 9.28708 9.25024 9.28708C8.20016 9.28708 7.38396 9.51141 6.80165 9.96008C6.21933 10.3992 5.92817 10.9815 5.92817 11.707C5.92817 12.3848 6.26706 12.9528 6.94484 13.411C7.63217 13.8692 8.63929 14.2988 9.9662 14.6998C12.41 15.4348 14.1904 16.3465 15.3073 17.4347C16.4242 18.523 16.9826 19.8786 16.9826 21.5014C16.9826 23.3056 16.3001 24.7232 14.935 25.7542C13.5699 26.7757 11.7322 27.2864 9.42207 27.2864C7.81832 27.2864 6.35775 26.9952 5.04038 26.4129C3.72301 25.821 2.71589 25.0144 2.01902 23.993C1.33169 22.9715 0.988029 21.7878 0.988029 20.4418H5.29813C5.29813 22.7424 6.67278 23.8927 9.42207 23.8927C10.4435 23.8927 11.2406 23.6875 11.8134 23.277C12.3862 22.857 12.6725 22.2746 12.6725 21.53ZM32.6989 19.3965C32.6989 21.783 32.1548 23.697 31.0665 25.1385C29.9878 26.5704 28.5272 27.2864 26.6848 27.2864C25.1192 27.2864 23.8544 26.7423 22.8902 25.654V32.9568H18.7519V11.5066H22.5895L22.7327 13.0244C23.735 11.8216 25.0429 11.2202 26.6562 11.2202C28.5654 11.2202 30.0498 11.9266 31.1094 13.3394C32.1691 14.7523 32.6989 16.6997 32.6989 19.1817V19.3965ZM28.5606 19.0958C28.5606 17.6543 28.3029 16.5422 27.7874 15.7594C27.2814 14.9766 26.5416 14.5852 25.5679 14.5852C24.2696 14.5852 23.377 15.0816 22.8902 16.0744V22.4178C23.3961 23.4393 24.2983 23.95 25.5965 23.95C27.5726 23.95 28.5606 22.3319 28.5606 19.0958ZM33.7522 19.1101C33.7522 17.5732 34.0481 16.2033 34.64 15.0005C35.2319 13.7976 36.0815 12.8669 37.1888 12.2082C38.3057 11.5495 39.5992 11.2202 41.0694 11.2202C43.16 11.2202 44.864 11.8598 46.1813 13.139C47.5082 14.4181 48.2481 16.1555 48.4008 18.3512L48.4295 19.4108C48.4295 21.7878 47.766 23.697 46.4391 25.1385C45.1122 26.5704 43.3318 27.2864 41.098 27.2864C38.8642 27.2864 37.0791 26.5704 35.7426 25.1385C34.4157 23.7066 33.7522 21.7592 33.7522 19.2962V19.1101ZM37.8905 19.4108C37.8905 20.8809 38.1673 22.0074 38.721 22.7901C39.2747 23.5634 40.067 23.95 41.098 23.95C42.1003 23.95 42.8831 23.5682 43.4464 22.8045C44.0096 22.0312 44.2912 20.7998 44.2912 19.1101C44.2912 17.6686 44.0096 16.5517 43.4464 15.7594C42.8831 14.967 42.0908 14.5709 41.0694 14.5709C40.0575 14.5709 39.2747 14.967 38.721 15.7594C38.1673 16.5422 37.8905 17.7593 37.8905 19.4108ZM49.4541 19.1101C49.4541 17.5732 49.7501 16.2033 50.3419 15.0005C50.9338 13.7976 51.7834 12.8669 52.8908 12.2082C54.0077 11.5495 55.3012 11.2202 56.7713 11.2202C58.8619 11.2202 60.5659 11.8598 61.8833 13.139C63.2102 14.4181 63.95 16.1555 64.1027 18.3512L64.1314 19.4108C64.1314 21.7878 63.4679 23.697 62.141 25.1385C60.8141 26.5704 59.0337 27.2864 56.7999 27.2864C54.5661 27.2864 52.781 26.5704 51.4445 25.1385C50.1176 23.7066 49.4541 21.7592 49.4541 19.2962V19.1101ZM53.5924 19.4108C53.5924 20.8809 53.8692 22.0074 54.4229 22.7901C54.9766 23.5634 55.7689 23.95 56.7999 23.95C57.8023 23.95 58.5851 23.5682 59.1483 22.8045C59.7115 22.0312 59.9931 20.7998 59.9931 19.1101C59.9931 17.6686 59.7115 16.5517 59.1483 15.7594C58.5851 14.967 57.7927 14.5709 56.7713 14.5709C55.7594 14.5709 54.9766 14.967 54.4229 15.7594C53.8692 16.5422 53.5924 17.7593 53.5924 19.4108ZM69.6094 11.5066L69.7382 13.2965C70.8456 11.9123 72.33 11.2202 74.1915 11.2202C75.8335 11.2202 77.0554 11.7023 77.8573 12.6664C78.6591 13.6306 79.0696 15.0721 79.0887 16.9908V27H74.9504V17.0911C74.9504 16.2128 74.7595 15.578 74.3777 15.1866C73.9958 14.7857 73.361 14.5852 72.4732 14.5852C71.3086 14.5852 70.4351 15.0816 69.8528 16.0744V27H65.7145V11.5066H69.6094Z" fill="white"/>
<path d="M81.7932 9.28991H80.4868V12.8427H79.6082V9.28991H78.3194V8.57818H81.7932V9.28991ZM83.2651 8.57818L84.3605 11.6711L85.4501 8.57818H86.6041V12.8427H85.7225V11.677L85.8104 9.66481L84.6593 12.8427H84.0559L82.9078 9.66774L82.9957 11.677V12.8427H82.117V8.57818H83.2651Z" fill="white"/>
</svg>
