<svg width="20" height="18" viewBox="0 0 20 18" fill="none" xmlns="http://www.w3.org/2000/svg">
<path d="M5.99155 7.77274H3.94609C3.60737 7.77274 3.33246 7.49783 3.33246 7.15911C3.33246 6.82038 3.60737 6.54547 3.94609 6.54547H5.99155C6.33028 6.54547 6.60519 6.82038 6.60519 7.15911C6.60519 7.49783 6.33028 7.77274 5.99155 7.77274Z" fill="#0A4DB0"/>
<path d="M15.8097 7.77274H9.67333C9.3346 7.77274 9.05969 7.49783 9.05969 7.15911C9.05969 6.82038 9.3346 6.54547 9.67333 6.54547H15.8097C16.1484 6.54547 16.4233 6.82038 16.4233 7.15911C16.4233 7.49783 16.1484 7.77274 15.8097 7.77274Z" fill="#0A4DB0"/>
<path d="M5.99155 11.0454H3.94609C3.60737 11.0454 3.33246 10.7705 3.33246 10.4318C3.33246 10.0931 3.60737 9.81818 3.94609 9.81818H5.99155C6.33028 9.81818 6.60519 10.0931 6.60519 10.4318C6.60519 10.7705 6.33028 11.0454 5.99155 11.0454Z" fill="#0A4DB0"/>
<path d="M15.8097 11.0454H9.67333C9.3346 11.0454 9.05969 10.7705 9.05969 10.4318C9.05969 10.0931 9.3346 9.81818 9.67333 9.81818H15.8097C16.1484 9.81818 16.4233 10.0931 16.4233 10.4318C16.4233 10.7705 16.1484 11.0454 15.8097 11.0454Z" fill="#0A4DB0"/>
<path d="M5.99155 14.3182H3.94609C3.60737 14.3182 3.33246 14.0433 3.33246 13.7045C3.33246 13.3658 3.60737 13.0909 3.94609 13.0909H5.99155C6.33028 13.0909 6.60519 13.3658 6.60519 13.7045C6.60519 14.0433 6.33028 14.3182 5.99155 14.3182Z" fill="#0A4DB0"/>
<path d="M15.8097 14.3182H9.67333C9.3346 14.3182 9.05969 14.0433 9.05969 13.7045C9.05969 13.3658 9.3346 13.0909 9.67333 13.0909H15.8097C16.1484 13.0909 16.4233 13.3658 16.4233 13.7045C16.4233 14.0433 16.1484 14.3182 15.8097 14.3182Z" fill="#0A4DB0"/>
<path d="M17.3864 18H2.25C1.00882 18 0 16.9912 0 15.75V2.25C0 1.00882 1.00882 0 2.25 0H17.3864C18.6275 0 19.6364 1.00882 19.6364 2.25V15.75C19.6364 16.9912 18.6275 18 17.3864 18ZM2.25 1.22727C1.68627 1.22727 1.22727 1.68627 1.22727 2.25V15.75C1.22727 16.3137 1.68627 16.7727 2.25 16.7727H17.3864C17.9501 16.7727 18.4091 16.3137 18.4091 15.75V2.25C18.4091 1.68627 17.9501 1.22727 17.3864 1.22727H2.25Z" fill="#0A4DB0"/>
<path d="M19.0227 4.09092H0.613636C0.274909 4.09092 0 3.81601 0 3.47728C0 3.13856 0.274909 2.86365 0.613636 2.86365H19.0227C19.3615 2.86365 19.6364 3.13856 19.6364 3.47728C19.6364 3.81601 19.3615 4.09092 19.0227 4.09092Z" fill="#0A4DB0"/>
</svg>
