<svg width="14" height="14" viewBox="0 0 14 14" fill="none" xmlns="http://www.w3.org/2000/svg">
<path d="M13.9634 5.36982C13.8712 5.08634 13.6198 4.88563 13.3235 4.85882L9.28208 4.49192L7.68491 0.752601C7.56698 0.477878 7.29867 0.300568 7.00002 0.300568C6.70137 0.300568 6.43295 0.477878 6.31577 0.752601L4.71859 4.49192L0.676564 4.85882C0.380264 4.88617 0.129359 5.08687 0.0366454 5.36982C-0.0555345 5.6533 0.0295957 5.96424 0.25369 6.16077L3.30866 8.83954L2.4079 12.8068C2.342 13.0985 2.45522 13.4001 2.69726 13.5751C2.82736 13.6696 2.98021 13.7169 3.13359 13.7169C3.2654 13.7169 3.39731 13.6818 3.51513 13.6113L7.00002 11.5276L10.4843 13.6113C10.7399 13.7641 11.0613 13.7501 11.3028 13.5751C11.5448 13.4001 11.658 13.0985 11.5921 12.8068L10.6914 8.83954L13.7463 6.16077C13.9703 5.96424 14.0556 5.65394 13.9634 5.36982Z" fill="#FF5856"/>
</svg>
