<svg width="20" height="9" viewBox="0 0 20 9" fill="none" xmlns="http://www.w3.org/2000/svg">
<path d="M19.043 3.82422C19.043 1.80493 17.4001 0.162109 15.3809 0.162109H3.66211C1.64282 0.162109 0 1.80493 0 3.82422V9H19.043V3.82422ZM1.46484 3.82422C1.46484 2.61265 2.45054 1.62695 3.66211 1.62695H8.56728L6.83779 2.77993C6.22515 3.18843 5.85938 3.87187 5.85938 4.60815V7.53516H1.46484V3.82422ZM17.5781 7.53516H7.32422V4.60815C7.32422 4.36269 7.44614 4.13491 7.65034 3.99873L11.2081 1.62695H15.3809C16.5924 1.62695 17.5781 2.61265 17.5781 3.82422V7.53516Z" fill="#1B5AFF"/>
</svg>
