<svg width="15" height="17" viewBox="0 0 15 17" fill="none" xmlns="http://www.w3.org/2000/svg">
<path d="M12.6484 11.0352C12.6484 10.5448 12.6484 6.98047 12.6484 6.39585C13.5729 5.70669 14.1133 4.7103 14.1133 3.66211C14.1133 1.50127 11.992 0 9.71875 0C8.93599 0 8.18218 0.169385 7.52109 0.486816C6.8562 0.167334 6.10508 0 5.32422 0C3.03989 0 0.929688 1.51016 0.929688 3.66211C0.929688 4.7103 1.47007 5.70669 2.39453 6.39585V11.0352C2.39453 13.8622 4.69448 16.1621 7.52148 16.1621C10.3485 16.1621 12.6484 13.8622 12.6484 11.0352ZM5.32422 1.46484C5.59868 1.46484 5.8668 1.49302 6.12378 1.54814C5.60386 2.15996 5.32422 2.89033 5.32422 3.66211H6.78906C6.78906 2.45054 8.10332 1.46484 9.71875 1.46484C11.3342 1.46484 12.6484 2.45054 12.6484 3.66211C12.6484 4.92612 11.2932 5.49727 11.1836 5.5917V7.32422H3.85938V5.5917C3.7501 5.49746 2.39453 4.94287 2.39453 3.66211C2.39453 2.45054 3.70879 1.46484 5.32422 1.46484ZM7.52148 14.6973C5.5022 14.6973 3.85938 13.0544 3.85938 11.0352V8.78857H11.1836V11.0352C11.1836 13.0544 9.54077 14.6973 7.52148 14.6973Z" fill="#1B5AFF"/>
</svg>
