<svg width="19" height="19" viewBox="0 0 19 19" fill="none" xmlns="http://www.w3.org/2000/svg">
<path d="M16.5508 1.48438H14.8438V0.59375C14.8438 0.265852 14.5779 0 14.25 0C13.9221 0 13.6562 0.265852 13.6562 0.59375V1.48438H5.34375V0.59375C5.34375 0.265852 5.07794 0 4.75 0C4.42206 0 4.15625 0.265852 4.15625 0.59375V1.48438H2.44922C1.0987 1.48438 0 2.58307 0 3.93359V16.5508C0 17.9013 1.0987 19 2.44922 19H16.5508C17.9013 19 19 17.9013 19 16.5508V3.93359C19 2.58307 17.9013 1.48438 16.5508 1.48438ZM2.44922 2.67188H4.15625V3.26562C4.15625 3.59352 4.42206 3.85938 4.75 3.85938C5.07794 3.85938 5.34375 3.59352 5.34375 3.26562V2.67188H13.6562V3.26562C13.6562 3.59352 13.9221 3.85938 14.25 3.85938C14.5779 3.85938 14.8438 3.59352 14.8438 3.26562V2.67188H16.5508C17.2465 2.67188 17.8125 3.23787 17.8125 3.93359V5.34375H1.1875V3.93359C1.1875 3.23787 1.75349 2.67188 2.44922 2.67188ZM16.5508 17.8125H2.44922C1.75349 17.8125 1.1875 17.2465 1.1875 16.5508V6.53125H17.8125V16.5508C17.8125 17.2465 17.2465 17.8125 16.5508 17.8125Z" fill="#828A9F"/>
</svg>
